<svg width="120" height="105" viewBox="0 0 120 105" fill="none" xmlns="http://www.w3.org/2000/svg">
<path d="M0.25 12.2768C0.25 5.68157 5.49722 0.25 12.0739 0.25H97.301C103.878 0.25 109.125 5.68157 109.125 12.2768V39.0625C109.125 40.3624 108.071 41.4167 106.771 41.4167C105.471 41.4167 104.417 40.3624 104.417 39.0625V12.2768C104.417 8.18706 101.184 4.95833 97.301 4.95833H12.0739C8.19142 4.95833 4.95833 8.18706 4.95833 12.2768V60.6401C4.95833 64.7295 8.19143 67.9583 12.0739 67.9583H49.4792C50.7791 67.9583 51.8333 69.0125 51.8333 70.3125C51.8333 71.6124 50.7791 72.6667 49.4792 72.6667H12.0739C5.49721 72.6667 0.25 67.235 0.25 60.6401V12.2768Z" fill="#D15847" stroke="white" stroke-width="0.5"/>
<path fill-rule="evenodd" clip-rule="evenodd" d="M3 18.5C3 17.1193 4.10863 16 5.47619 16H104.524C105.891 16 107 17.1193 107 18.5C107 19.8807 105.891 21 104.524 21H5.47619C4.10863 21 3 19.8807 3 18.5Z" fill="#D15847"/>
<path d="M10.6667 44.2709C10.6667 42.971 11.7208 41.9167 13.0209 41.9167H23.4376C24.7377 41.9167 25.7917 42.971 25.7917 44.2709C25.7917 45.5709 24.7377 46.6251 23.4376 46.6251H13.0209C11.7208 46.6251 10.6667 45.5709 10.6667 44.2709Z" fill="#D15847" stroke="white" stroke-width="0.5"/>
<path d="M10.6667 57.2917C10.6667 55.9917 11.7208 54.9375 13.0209 54.9375H33.8542C35.1544 54.9375 36.2084 55.9917 36.2084 57.2917C36.2084 58.5916 35.1544 59.6458 33.8542 59.6458H13.0209C11.7208 59.6458 10.6667 58.5916 10.6667 57.2917Z" fill="#D15847" stroke="white" stroke-width="0.5"/>
<path d="M91.1458 51.8333C78.0635 51.8333 67.4583 62.4385 67.4583 75.5208C67.4583 88.6032 78.0635 99.2083 91.1458 99.2083C104.228 99.2083 114.833 88.6032 114.833 75.5208C114.833 62.4385 104.228 51.8333 91.1458 51.8333ZM62.75 75.5208C62.75 59.8381 75.4631 47.125 91.1458 47.125C106.829 47.125 119.542 59.8381 119.542 75.5208C119.542 91.2036 106.829 103.917 91.1458 103.917C75.4631 103.917 62.75 91.2036 62.75 75.5208Z" fill="#D15847" stroke="white" stroke-width="0.5"/>
<path d="M90.9691 79.8273L91.1459 80.0041L91.3227 79.8273L99.8976 71.2518C100.817 70.3328 102.308 70.3327 103.227 71.2517C104.147 72.1713 104.147 73.662 103.227 74.5816L92.8108 84.9982C91.8913 85.9173 90.4005 85.9173 89.481 84.9982L81.6686 77.1858C81.6686 77.1858 81.6685 77.1857 81.6685 77.1857C80.7495 76.2662 80.7495 74.7756 81.6685 73.856C82.588 72.9369 84.0787 72.9369 84.9983 73.8559C84.9983 73.856 84.9983 73.856 84.9983 73.856L90.9691 79.8273Z" fill="#D15847" stroke="white" stroke-width="0.5"/>
</svg>
