<svg width="105" height="121" viewBox="0 0 105 121" fill="none" xmlns="http://www.w3.org/2000/svg">
<mask id="path-1-inside-1" fill="white">
<path fill-rule="evenodd" clip-rule="evenodd" d="M41.5604 51.2663C27.4042 51.2663 15.9272 39.7903 15.9272 25.6332C15.9438 11.4828 27.411 0.0165262 41.5604 0C55.7175 0 67.1935 11.476 67.1935 25.6332C67.1935 39.7903 55.7175 51.2663 41.5604 51.2663ZM41.5604 47.7822C53.7937 47.7822 63.7094 37.8655 63.7094 25.6332C63.6958 13.4067 53.7879 3.49773 41.5604 3.48412C29.3281 3.48412 19.4114 13.4008 19.4114 25.6332C19.4114 37.8655 29.3281 47.7822 41.5604 47.7822ZM104.837 70.5652C104.837 57.9518 94.3142 47.6899 81.379 47.6899C71.2737 47.6899 62.6402 53.9544 59.3476 62.7094C53.7851 60.0856 47.7112 58.7265 41.5605 58.7324C30.3412 58.7324 19.8995 63.0904 12.1594 71.0026C4.31918 79.0188 0 89.9864 0 101.887C0 102.85 0.780621 103.629 1.74206 103.629H64.9413V119.215C64.9413 119.908 65.3515 120.535 65.9863 120.812C66.6211 121.089 67.359 120.964 67.8674 120.494L81.379 107.978L94.8926 120.494C95.401 120.964 96.1399 121.089 96.7737 120.812C97.4085 120.535 97.8187 119.908 97.8187 119.215V86.8668C102.29 82.6215 104.827 76.7304 104.837 70.5652ZM81.379 51.1741C92.3923 51.1741 101.352 59.8727 101.352 70.5652C101.34 75.8604 99.1243 80.9115 95.2387 84.5084C95.0015 84.6397 94.7974 84.8234 94.6428 85.046C87.0125 91.5923 75.7475 91.5923 68.1162 85.046C67.9627 84.8234 67.7585 84.6387 67.5203 84.5084C63.6347 80.9115 61.4192 75.8604 61.4066 70.5652C61.4066 59.8727 70.3658 51.1741 81.379 51.1741ZM3.51814 100.144C3.91477 89.8376 7.83246 80.409 14.65 73.4388C21.73 66.2022 31.2861 62.2165 41.5605 62.2165C47.3885 62.2087 53.1396 63.5386 58.3716 66.105C56.8288 73.6954 59.3126 81.5454 64.9413 86.8668V100.144H3.51814ZM94.3336 115.225L82.5621 104.322C81.8943 103.704 80.8628 103.704 80.195 104.322L68.4244 115.225V89.6257C76.3113 94.7109 86.4448 94.7109 94.3317 89.6257L94.3336 115.225ZM68.3962 68.6394L74.7422 73.1277L72.3236 80.3691C72.0854 81.0836 72.3323 81.87 72.937 82.3192C73.5417 82.7683 74.367 82.778 74.9814 82.3435L81.3799 77.8202L87.7775 82.3435C88.3929 82.778 89.2173 82.7683 89.8219 82.3192C90.4266 81.87 90.6745 81.0836 90.4363 80.3691L88.0177 73.1277L94.3637 68.6394C94.983 68.2009 95.2484 67.4125 95.018 66.6893C94.7886 65.966 94.1168 65.4751 93.3576 65.4751H85.4619L83.0316 58.1957C82.7934 57.4841 82.1285 57.0049 81.379 57.0049C80.6295 57.0049 79.9636 57.4841 79.7263 58.1957L77.296 65.4751H69.4004C68.6411 65.4751 67.9694 65.966 67.74 66.6893C67.5106 67.4125 67.775 68.2009 68.3942 68.6394H68.3962ZM78.553 68.9592C79.3025 68.9592 79.9674 68.4799 80.2046 67.7683L81.3809 64.2473L82.5562 67.7703C82.7934 68.4809 83.4593 68.9602 84.2088 68.9602H87.8786L84.9496 71.0298C84.3226 71.4731 84.0591 72.2751 84.3022 73.0042L85.4473 76.43L82.3861 74.2651C81.7834 73.8393 80.9775 73.8393 80.3748 74.2651L77.3135 76.43L78.4587 73.0042C78.7017 72.2761 78.4392 71.4741 77.8113 71.0298L74.8842 68.9602L78.553 68.9592Z"/>
</mask>
<path fill-rule="evenodd" clip-rule="evenodd" d="M41.5604 51.2663C27.4042 51.2663 15.9272 39.7903 15.9272 25.6332C15.9438 11.4828 27.411 0.0165262 41.5604 0C55.7175 0 67.1935 11.476 67.1935 25.6332C67.1935 39.7903 55.7175 51.2663 41.5604 51.2663ZM41.5604 47.7822C53.7937 47.7822 63.7094 37.8655 63.7094 25.6332C63.6958 13.4067 53.7879 3.49773 41.5604 3.48412C29.3281 3.48412 19.4114 13.4008 19.4114 25.6332C19.4114 37.8655 29.3281 47.7822 41.5604 47.7822ZM104.837 70.5652C104.837 57.9518 94.3142 47.6899 81.379 47.6899C71.2737 47.6899 62.6402 53.9544 59.3476 62.7094C53.7851 60.0856 47.7112 58.7265 41.5605 58.7324C30.3412 58.7324 19.8995 63.0904 12.1594 71.0026C4.31918 79.0188 0 89.9864 0 101.887C0 102.85 0.780621 103.629 1.74206 103.629H64.9413V119.215C64.9413 119.908 65.3515 120.535 65.9863 120.812C66.6211 121.089 67.359 120.964 67.8674 120.494L81.379 107.978L94.8926 120.494C95.401 120.964 96.1399 121.089 96.7737 120.812C97.4085 120.535 97.8187 119.908 97.8187 119.215V86.8668C102.29 82.6215 104.827 76.7304 104.837 70.5652ZM81.379 51.1741C92.3923 51.1741 101.352 59.8727 101.352 70.5652C101.34 75.8604 99.1243 80.9115 95.2387 84.5084C95.0015 84.6397 94.7974 84.8234 94.6428 85.046C87.0125 91.5923 75.7475 91.5923 68.1162 85.046C67.9627 84.8234 67.7585 84.6387 67.5203 84.5084C63.6347 80.9115 61.4192 75.8604 61.4066 70.5652C61.4066 59.8727 70.3658 51.1741 81.379 51.1741ZM3.51814 100.144C3.91477 89.8376 7.83246 80.409 14.65 73.4388C21.73 66.2022 31.2861 62.2165 41.5605 62.2165C47.3885 62.2087 53.1396 63.5386 58.3716 66.105C56.8288 73.6954 59.3126 81.5454 64.9413 86.8668V100.144H3.51814ZM94.3336 115.225L82.5621 104.322C81.8943 103.704 80.8628 103.704 80.195 104.322L68.4244 115.225V89.6257C76.3113 94.7109 86.4448 94.7109 94.3317 89.6257L94.3336 115.225ZM68.3962 68.6394L74.7422 73.1277L72.3236 80.3691C72.0854 81.0836 72.3323 81.87 72.937 82.3192C73.5417 82.7683 74.367 82.778 74.9814 82.3435L81.3799 77.8202L87.7775 82.3435C88.3929 82.778 89.2173 82.7683 89.8219 82.3192C90.4266 81.87 90.6745 81.0836 90.4363 80.3691L88.0177 73.1277L94.3637 68.6394C94.983 68.2009 95.2484 67.4125 95.018 66.6893C94.7886 65.966 94.1168 65.4751 93.3576 65.4751H85.4619L83.0316 58.1957C82.7934 57.4841 82.1285 57.0049 81.379 57.0049C80.6295 57.0049 79.9636 57.4841 79.7263 58.1957L77.296 65.4751H69.4004C68.6411 65.4751 67.9694 65.966 67.74 66.6893C67.5106 67.4125 67.775 68.2009 68.3942 68.6394H68.3962ZM78.553 68.9592C79.3025 68.9592 79.9674 68.4799 80.2046 67.7683L81.3809 64.2473L82.5562 67.7703C82.7934 68.4809 83.4593 68.9602 84.2088 68.9602H87.8786L84.9496 71.0298C84.3226 71.4731 84.0591 72.2751 84.3022 73.0042L85.4473 76.43L82.3861 74.2651C81.7834 73.8393 80.9775 73.8393 80.3748 74.2651L77.3135 76.43L78.4587 73.0042C78.7017 72.2761 78.4392 71.4741 77.8113 71.0298L74.8842 68.9602L78.553 68.9592Z" fill="#D15847"/>
<path d="M15.9272 25.6332L13.9272 25.6308V25.6332H15.9272ZM41.5604 0L41.5604 -2L41.5581 -2L41.5604 0ZM63.7094 25.6332L65.7094 25.6332L65.7094 25.6309L63.7094 25.6332ZM41.5604 3.48412L41.5626 1.48412H41.5604V3.48412ZM104.837 70.5652L106.837 70.5683V70.5652H104.837ZM59.3476 62.7094L58.4944 64.5182L60.4561 65.4436L61.2196 63.4134L59.3476 62.7094ZM41.5605 58.7324L41.5605 60.7324L41.5624 60.7324L41.5605 58.7324ZM12.1594 71.0026L10.7297 69.604L10.7296 69.6042L12.1594 71.0026ZM64.9413 103.629H66.9413V101.629H64.9413V103.629ZM67.8674 120.494L69.2258 121.962L69.2265 121.961L67.8674 120.494ZM81.379 107.978L82.7381 106.51L81.3789 105.251L80.0199 106.51L81.379 107.978ZM94.8926 120.494L93.5336 121.961L93.5342 121.962L94.8926 120.494ZM96.7737 120.812L95.9737 118.979L95.9727 118.979L96.7737 120.812ZM97.8187 86.8668L96.4416 85.4165L95.8187 86.0079V86.8668H97.8187ZM101.352 70.5652L103.352 70.5699V70.5652H101.352ZM95.2387 84.5084L96.207 86.2584L96.4193 86.1409L96.5973 85.9761L95.2387 84.5084ZM94.6428 85.046L95.9451 86.5639L96.1395 86.3971L96.2856 86.1867L94.6428 85.046ZM68.1162 85.046L66.47 86.1818L66.6173 86.3952L66.8141 86.564L68.1162 85.046ZM67.5203 84.5084L66.1617 85.9761L66.3434 86.1443L66.5606 86.2631L67.5203 84.5084ZM61.4066 70.5652L59.4066 70.5652L59.4066 70.5699L61.4066 70.5652ZM14.65 73.4388L13.2204 72.0401L13.2202 72.0403L14.65 73.4388ZM3.51814 100.144L1.51962 100.067L1.43969 102.144H3.51814V100.144ZM41.5605 62.2165L41.5605 64.2165L41.5632 64.2165L41.5605 62.2165ZM58.3716 66.105L60.3315 66.5034L60.6392 64.9897L59.2524 64.3094L58.3716 66.105ZM64.9413 86.8668H66.9413V86.0053L66.3153 85.4135L64.9413 86.8668ZM64.9413 100.144V102.144H66.9413V100.144H64.9413ZM82.5621 104.322L83.9211 102.855L83.9208 102.855L82.5621 104.322ZM94.3336 115.225L92.9746 116.692L96.334 119.804L96.3336 115.225L94.3336 115.225ZM80.195 104.322L78.8363 102.855L78.8359 102.855L80.195 104.322ZM68.4244 115.225H66.4244V119.803L69.7835 116.692L68.4244 115.225ZM68.4244 89.6257L69.5082 87.9448L66.4244 85.9565V89.6257H68.4244ZM94.3317 89.6257L96.3317 89.6256L96.3314 85.9567L93.2479 87.9448L94.3317 89.6257ZM74.7422 73.1277L76.6392 73.7613L77.1098 72.3525L75.8971 71.4948L74.7422 73.1277ZM68.3962 68.6394L69.551 67.0065L69.032 66.6394H68.3962V68.6394ZM72.3236 80.3691L70.4266 79.7355L70.4262 79.7366L72.3236 80.3691ZM74.9814 82.3435L73.8269 80.7104L73.8265 80.7106L74.9814 82.3435ZM81.3799 77.8202L82.5346 76.1871L81.38 75.3708L80.2254 76.187L81.3799 77.8202ZM87.7775 82.3435L86.6229 83.9765L86.6239 83.9772L87.7775 82.3435ZM89.8219 82.3192L91.0145 83.9247L91.0145 83.9247L89.8219 82.3192ZM90.4363 80.3691L92.3337 79.7366L92.3333 79.7355L90.4363 80.3691ZM88.0177 73.1277L86.8628 71.4948L85.6501 72.3525L86.1207 73.7613L88.0177 73.1277ZM94.3637 68.6394L95.5186 70.2722L95.5194 70.2717L94.3637 68.6394ZM95.018 66.6893L93.1116 67.294L93.1123 67.2963L95.018 66.6893ZM85.4619 65.4751L83.5649 66.1084L84.0211 67.4751H85.4619V65.4751ZM83.0316 58.1957L84.9287 57.5624L84.9282 57.561L83.0316 58.1957ZM79.7263 58.1957L81.6234 58.8291L81.6237 58.8282L79.7263 58.1957ZM77.296 65.4751V67.4751H78.7368L79.1931 66.1084L77.296 65.4751ZM68.3942 68.6394L67.2385 70.2717L67.7579 70.6394H68.3942V68.6394ZM80.2046 67.7683L78.3077 67.1346L78.3073 67.1359L80.2046 67.7683ZM78.553 68.9592L78.553 66.9592L78.5525 66.9592L78.553 68.9592ZM81.3809 64.2473L83.2781 63.6143L81.3822 57.9313L79.484 63.6135L81.3809 64.2473ZM82.5562 67.7703L80.659 68.4032L80.6591 68.4035L82.5562 67.7703ZM87.8786 68.9602L89.0328 70.5935L94.1748 66.9602H87.8786V68.9602ZM84.9496 71.0298L83.7955 69.3964L83.7951 69.3967L84.9496 71.0298ZM84.3022 73.0042L82.4048 73.6367L82.4053 73.6383L84.3022 73.0042ZM85.4473 76.43L84.2925 78.0629L89.2814 81.5911L87.3442 75.7959L85.4473 76.43ZM82.3861 74.2651L83.5409 72.6322L83.5401 72.6316L82.3861 74.2651ZM80.3748 74.2651L79.2208 72.6316L79.22 72.6322L80.3748 74.2651ZM77.3135 76.43L75.4167 75.7959L73.4795 81.5911L78.4683 78.0629L77.3135 76.43ZM78.4587 73.0042L80.3555 73.6383L80.3558 73.6374L78.4587 73.0042ZM77.8113 71.0298L78.9663 69.3971L78.9659 69.3968L77.8113 71.0298ZM74.8842 68.9602L74.8836 66.9602L68.5937 66.9618L73.7295 70.5932L74.8842 68.9602ZM13.9272 25.6332C13.9272 40.8949 26.2997 53.2663 41.5604 53.2663V49.2663C28.5087 49.2663 17.9272 38.6857 17.9272 25.6332H13.9272ZM41.5581 -2C26.306 -1.98218 13.9451 10.3777 13.9272 25.6308L17.9272 25.6355C17.9425 12.5879 28.5161 2.01524 41.5627 2L41.5581 -2ZM69.1935 25.6332C69.1935 10.3714 56.8221 -2 41.5604 -2V2C54.613 2 65.1935 12.5806 65.1935 25.6332H69.1935ZM41.5604 53.2663C56.8221 53.2663 69.1935 40.8949 69.1935 25.6332H65.1935C65.1935 38.6857 54.613 49.2663 41.5604 49.2663V53.2663ZM61.7094 25.6332C61.7094 36.761 52.6891 45.7822 41.5604 45.7822V49.7822C54.8983 49.7822 65.7094 38.97 65.7094 25.6332H61.7094ZM41.5582 5.48412C52.6827 5.4965 61.697 14.5117 61.7094 25.6354L65.7094 25.6309C65.6946 12.3017 54.893 1.49896 41.5626 1.48412L41.5582 5.48412ZM21.4114 25.6332C21.4114 14.5054 30.4326 5.48412 41.5604 5.48412V1.48412C28.2235 1.48412 17.4114 12.2963 17.4114 25.6332H21.4114ZM41.5604 45.7822C30.4326 45.7822 21.4114 36.7609 21.4114 25.6332H17.4114C17.4114 38.97 28.2235 49.7822 41.5604 49.7822V45.7822ZM81.379 49.6899C93.2573 49.6899 102.837 59.1034 102.837 70.5652H106.837C106.837 56.8001 95.3711 45.6899 81.379 45.6899V49.6899ZM61.2196 63.4134C64.2204 55.4344 72.1106 49.6899 81.379 49.6899V45.6899C70.4368 45.6899 61.0601 52.4743 57.4756 62.0053L61.2196 63.4134ZM41.5624 60.7324C47.4171 60.7268 53.199 62.0205 58.4944 64.5182L60.2008 60.9005C54.3712 58.1507 48.0053 56.7263 41.5586 56.7324L41.5624 60.7324ZM13.5891 72.4012C20.9472 64.8795 30.871 60.7324 41.5605 60.7324V56.7324C29.8113 56.7324 18.8518 61.3014 10.7297 69.604L13.5891 72.4012ZM2 101.887C2 90.4739 6.13843 80.0191 13.5892 72.401L10.7296 69.6042C2.49992 78.0185 -2 89.4989 -2 101.887H2ZM1.74206 101.629C1.88447 101.629 2 101.744 2 101.887H-2C-2 103.955 -0.323231 105.629 1.74206 105.629V101.629ZM64.9413 101.629H1.74206V105.629H64.9413V101.629ZM66.9413 119.215V103.629H62.9413V119.215H66.9413ZM66.7863 118.979C66.8805 119.02 66.9413 119.113 66.9413 119.215H62.9413C62.9413 120.703 63.8225 122.049 65.1863 122.645L66.7863 118.979ZM66.509 119.026C66.5843 118.956 66.6938 118.938 66.7863 118.979L65.1863 122.645C66.5484 123.239 68.1337 122.972 69.2258 121.962L66.509 119.026ZM80.0199 106.51L66.5082 119.027L69.2265 121.961L82.7382 109.445L80.0199 106.51ZM96.2517 119.026L82.7381 106.51L80.02 109.445L93.5336 121.961L96.2517 119.026ZM95.9727 118.979C96.067 118.938 96.176 118.956 96.2511 119.026L93.5342 121.962C94.6261 122.972 96.2127 123.24 97.5747 122.644L95.9727 118.979ZM95.8187 119.215C95.8187 119.113 95.8795 119.02 95.9737 118.979L97.5737 122.645C98.9375 122.049 99.8187 120.703 99.8187 119.215H95.8187ZM95.8187 86.8668V119.215H99.8187V86.8668H95.8187ZM102.837 70.562C102.828 76.1796 100.516 81.5478 96.4416 85.4165L99.1959 88.3171C104.063 83.6953 106.826 77.2813 106.837 70.5683L102.837 70.562ZM103.352 70.5652C103.352 58.7127 93.4407 49.1741 81.379 49.1741V53.1741C91.3439 53.1741 99.3524 61.0326 99.3524 70.5652H103.352ZM96.5973 85.9761C100.89 82.002 103.338 76.4209 103.352 70.5699L99.3524 70.5604C99.3411 75.2998 97.3582 79.8211 93.8801 83.0407L96.5973 85.9761ZM96.2856 86.1867C96.2636 86.2183 96.2362 86.2422 96.207 86.2584L94.2704 82.7584C93.7668 83.0371 93.3311 83.4285 93 83.9054L96.2856 86.1867ZM66.8141 86.564C75.1944 93.753 87.5655 93.7531 95.9451 86.5639L93.3405 83.5281C86.4595 89.4316 76.3005 89.4317 69.4184 83.528L66.8141 86.564ZM66.5606 86.2631C66.5231 86.2426 66.4927 86.2147 66.47 86.1818L69.7624 83.9102C69.4326 83.4321 68.9939 83.0348 68.4801 82.7537L66.5606 86.2631ZM59.4066 70.5699C59.4206 76.4209 61.8686 82.002 66.1617 85.9761L68.879 83.0407C65.4009 79.8211 63.4179 75.2998 63.4066 70.5604L59.4066 70.5699ZM81.379 49.1741C69.3173 49.1741 59.4066 58.7129 59.4066 70.5652H63.4066C63.4066 61.0325 71.4142 53.1741 81.379 53.1741V49.1741ZM13.2202 72.0403C6.0326 79.3888 1.93402 89.299 1.51962 100.067L5.51666 100.221C5.89552 90.3763 9.63232 81.4291 16.0798 74.8372L13.2202 72.0403ZM41.5605 60.2165C30.7569 60.2165 20.6829 64.4127 13.2204 72.0401L16.0796 74.8374C22.7772 67.9918 31.8152 64.2165 41.5605 64.2165V60.2165ZM59.2524 64.3094C53.7453 61.608 47.6919 60.2083 41.5579 60.2165L41.5632 64.2165C47.085 64.2091 52.5339 65.4691 57.4908 67.9006L59.2524 64.3094ZM66.3153 85.4135C61.1886 80.5667 58.9264 73.4168 60.3315 66.5034L56.4117 65.7067C54.7313 73.974 57.4366 82.5241 63.5673 88.3201L66.3153 85.4135ZM66.9413 100.144V86.8668H62.9413V100.144H66.9413ZM3.51814 102.144H64.9413V98.1442H3.51814V102.144ZM81.2031 105.79L92.9746 116.692L95.6927 113.758L83.9211 102.855L81.2031 105.79ZM81.5537 105.79C81.4548 105.882 81.3023 105.882 81.2034 105.79L83.9208 102.855C82.4862 101.527 80.2709 101.527 78.8363 102.855L81.5537 105.79ZM69.7835 116.692L81.554 105.79L78.8359 102.855L67.0653 113.758L69.7835 116.692ZM66.4244 89.6257V115.225H70.4244V89.6257H66.4244ZM93.2479 87.9448C86.0209 92.6046 76.7352 92.6046 69.5082 87.9448L67.3406 91.3066C75.8874 96.8173 86.8687 96.8173 95.4155 91.3066L93.2479 87.9448ZM96.3336 115.225L96.3317 89.6256L92.3317 89.6259L92.3336 115.225L96.3336 115.225ZM75.8971 71.4948L69.551 67.0065L67.2413 70.2722L73.5874 74.7606L75.8971 71.4948ZM74.2206 81.0027L76.6392 73.7613L72.8452 72.4941L70.4266 79.7355L74.2206 81.0027ZM74.1295 80.7136C74.22 80.7808 74.2556 80.8977 74.2209 81.0015L70.4262 79.7366C69.9152 81.2695 70.4446 82.9593 71.7444 83.9247L74.1295 80.7136ZM73.8265 80.7106C73.9188 80.6453 74.0405 80.6475 74.1295 80.7136L71.7444 83.9247C73.0428 84.8891 74.8152 84.9107 76.1363 83.9763L73.8265 80.7106ZM80.2254 76.187L73.8269 80.7104L76.1359 83.9766L82.5345 79.4533L80.2254 76.187ZM88.9322 80.7104L82.5346 76.1871L80.2253 79.4532L86.6229 83.9765L88.9322 80.7104ZM88.6294 80.7136C88.7189 80.6471 88.8409 80.646 88.9312 80.7098L86.6239 83.9772C87.9449 84.91 89.7156 84.8895 91.0145 83.9247L88.6294 80.7136ZM88.539 81.0015C88.5037 80.8956 88.5406 80.7795 88.6294 80.7136L91.0145 83.9247C92.3126 82.9606 92.8453 81.2716 92.3337 79.7366L88.539 81.0015ZM86.1207 73.7613L88.5393 81.0027L92.3333 79.7355L89.9146 72.4941L86.1207 73.7613ZM93.2089 67.0065L86.8628 71.4948L89.1725 74.7606L95.5186 70.2722L93.2089 67.0065ZM93.1123 67.2963C93.0775 67.1869 93.1185 67.0705 93.2081 67.007L95.5194 70.2717C96.8475 69.3314 97.4193 67.6382 96.9236 66.0822L93.1123 67.2963ZM93.3576 67.4751C93.2468 67.4751 93.1462 67.4031 93.1116 67.294L96.9244 66.0845C96.4309 64.5289 94.9868 63.4751 93.3576 63.4751V67.4751ZM85.4619 67.4751H93.3576V63.4751H85.4619V67.4751ZM81.1345 58.8291L83.5649 66.1084L87.359 64.8417L84.9287 57.5624L81.1345 58.8291ZM81.379 59.0049C81.2668 59.0049 81.1692 58.9328 81.135 58.8305L84.9282 57.561C84.4176 56.0355 82.9902 55.0049 81.379 55.0049V59.0049ZM81.6237 58.8282C81.5884 58.9342 81.4894 59.0049 81.379 59.0049V55.0049C79.7695 55.0049 78.3387 56.0341 77.829 57.5633L81.6237 58.8282ZM79.1931 66.1084L81.6234 58.8291L77.8293 57.5624L75.399 64.8417L79.1931 66.1084ZM69.4004 67.4751H77.296V63.4751H69.4004V67.4751ZM69.6464 67.294C69.6118 67.4031 69.5111 67.4751 69.4004 67.4751V63.4751C67.7712 63.4751 66.327 64.5289 65.8336 66.0845L69.6464 67.294ZM69.5499 67.007C69.6413 67.0717 69.68 67.188 69.6464 67.294L65.8336 66.0845C65.3411 67.637 65.9087 69.3301 67.2385 70.2717L69.5499 67.007ZM68.3962 66.6394H68.3942V70.6394H68.3962V66.6394ZM78.3073 67.1359C78.3422 67.0311 78.4413 66.9592 78.553 66.9592V70.9592C80.1638 70.9592 81.5927 69.9287 82.102 68.4008L78.3073 67.1359ZM79.484 63.6135L78.3077 67.1346L82.1016 68.402L83.2779 64.881L79.484 63.6135ZM84.4534 67.1373L83.2781 63.6143L79.4837 64.8802L80.659 68.4032L84.4534 67.1373ZM84.2088 66.9602C84.3187 66.9602 84.4177 67.0303 84.4533 67.137L80.6591 68.4035C81.1691 69.9315 82.5999 70.9602 84.2088 70.9602V66.9602ZM87.8786 66.9602H84.2088V70.9602H87.8786V66.9602ZM86.1038 72.6632L89.0328 70.5935L86.7245 67.3268L83.7955 69.3964L86.1038 72.6632ZM86.1995 72.3718C86.2355 72.4796 86.1965 72.5976 86.1042 72.6629L83.7951 69.3967C82.4487 70.3486 81.8828 72.0706 82.4048 73.6367L86.1995 72.3718ZM87.3442 75.7959L86.199 72.3701L82.4053 73.6383L83.5505 77.0641L87.3442 75.7959ZM81.2313 75.898L84.2925 78.0629L86.6022 74.7971L83.5409 72.6322L81.2313 75.898ZM81.5287 75.8986C81.4397 75.9614 81.3211 75.9614 81.2321 75.8986L83.5401 72.6316C82.2456 71.7171 80.5152 71.7171 79.2208 72.6316L81.5287 75.8986ZM78.4683 78.0629L81.5296 75.898L79.22 72.6322L76.1587 74.7971L78.4683 78.0629ZM76.5619 72.3701L75.4167 75.7959L79.2103 77.0641L80.3555 73.6383L76.5619 72.3701ZM76.6562 72.6626C76.565 72.5981 76.5252 72.4799 76.5616 72.371L80.3558 73.6374C80.8782 72.0723 80.3135 70.3501 78.9663 69.3971L76.6562 72.6626ZM73.7295 70.5932L76.6566 72.6628L78.9659 69.3968L76.0388 67.3271L73.7295 70.5932ZM78.5525 66.9592L74.8836 66.9602L74.8847 70.9602L78.5535 70.9592L78.5525 66.9592Z" fill="#D15847" mask="url(#path-1-inside-1)"/>
</svg>
