<svg width="93" height="120" viewBox="0 0 93 120" fill="none" xmlns="http://www.w3.org/2000/svg">
<path d="M91.7591 24.1661L46.9003 0.262999C46.2348 -0.0921829 45.4372 -0.0871982 44.7766 0.275462L1.15902 24.1786C0.443666 24.5712 0 25.3214 0 26.1377V57.3614C0.0261714 83.028 15.233 106.248 38.7498 116.531L44.8041 119.169C45.3699 119.416 46.0142 119.417 46.5812 119.172L53.4032 116.226C77.3562 106.166 92.9393 82.7214 92.9418 56.742V26.1377C92.9418 25.3127 92.4869 24.5537 91.7591 24.1661ZM88.4753 56.742C88.4703 80.9305 73.9577 102.756 51.6547 112.117L51.6398 112.124L45.6989 114.689L40.5369 112.437C18.6464 102.866 4.49025 81.2533 4.46533 57.3614V27.46L45.8646 4.7707L88.4753 27.4762V56.742Z" fill="#D15847"/>
<path d="M91.7591 24.1661L46.9003 0.262999C46.2348 -0.0921829 45.4372 -0.0871982 44.7766 0.275462L1.15902 24.1786C0.443666 24.5712 0 25.3214 0 26.1377V57.3614C0.0261714 83.028 15.233 106.248 38.7498 116.531L44.8041 119.169C45.3699 119.416 46.0142 119.417 46.5812 119.172L53.4032 116.226C77.3562 106.166 92.9393 82.7214 92.9418 56.742V26.1377C92.9418 25.3127 92.4869 24.5537 91.7591 24.1661ZM88.4753 56.742C88.4703 80.9305 73.9577 102.756 51.6547 112.117L51.6398 112.124L45.6989 114.689L40.5369 112.437C18.6464 102.866 4.49025 81.2533 4.46533 57.3614V27.46L45.8646 4.7707L88.4753 27.4762V56.742Z" stroke="#D15847"/>
<path d="M29.3877 55.9132C28.5864 54.9748 27.1769 54.8638 26.2384 55.6652C25.3 56.4653 25.1891 57.876 25.9904 58.8132L37.7875 72.628C38.5751 73.5502 39.9547 73.6761 40.8944 72.9109L68.3693 50.558C69.3264 49.7804 69.471 48.3734 68.6921 47.4162C67.9144 46.4604 66.5074 46.3145 65.5502 47.0935L39.7678 68.0679L29.3877 55.9132Z" fill="#D15847"/>
<path d="M29.3877 55.9132C28.5864 54.9748 27.1769 54.8638 26.2384 55.6652C25.3 56.4653 25.1891 57.876 25.9904 58.8132L37.7875 72.628C38.5751 73.5502 39.9547 73.6761 40.8944 72.9109L68.3693 50.558C69.3264 49.7804 69.471 48.3734 68.6921 47.4162C67.9144 46.4604 66.5074 46.3145 65.5502 47.0935L39.7678 68.0679L29.3877 55.9132Z" stroke="#D15847"/>
</svg>
