<svg width="124" height="105" viewBox="0 0 124 105" fill="none" xmlns="http://www.w3.org/2000/svg">
<path d="M67.058 11.6475H46.6061C41.5283 3.72745 32.4752 -0.722978 23.1016 0.0964183C13.7291 0.914678 5.58398 6.86638 1.95636 15.5479C-1.67126 24.2294 -0.181348 34.2065 5.82263 41.4504V86.924C5.82718 91.2608 9.34115 94.7748 13.6779 94.7793H19.0887C20.082 100.658 25.1733 104.962 31.1353 104.962C37.0972 104.962 42.1886 100.658 43.1819 94.7793H86.0042C86.9974 100.658 92.0888 104.962 98.0508 104.962C104.013 104.962 109.104 100.658 110.097 94.7793H115.506C119.841 94.7748 123.357 91.2608 123.361 86.924V60.867C123.361 60.8499 123.359 60.834 123.358 60.8159C123.358 60.7795 123.355 60.7431 123.353 60.7068C123.351 60.6749 123.348 60.6431 123.343 60.6124C123.34 60.5817 123.334 60.5442 123.328 60.5101C123.321 60.4761 123.316 60.4454 123.309 60.4135C123.301 60.3817 123.293 60.3488 123.284 60.3169C123.275 60.2851 123.266 60.2533 123.254 60.2215C123.243 60.1908 123.233 60.159 123.22 60.1283C123.209 60.0976 123.196 60.0669 123.183 60.0374C123.169 60.0067 123.153 59.9771 123.138 59.9476C123.125 59.9169 123.11 59.8885 123.092 59.8601C123.075 59.8305 123.059 59.8033 123.041 59.776C123.024 59.7476 123.003 59.718 122.983 59.6885C122.963 59.6589 122.946 59.6385 122.927 59.6135C122.908 59.5885 122.88 59.5555 122.857 59.5282C122.845 59.5157 122.835 59.5021 122.824 59.4896L107.837 43.1585C106.347 41.5402 104.249 40.6173 102.049 40.6151H74.9133V19.5028C74.9088 15.1672 71.3948 11.6532 67.058 11.6475V11.6475ZM25.3154 4.08316C37.0449 4.08316 46.5538 13.592 46.5538 25.3216C46.5538 37.0522 37.0449 46.5599 25.3154 46.5599C13.5859 46.5599 4.07701 37.0522 4.07701 25.3216C4.09065 13.5977 13.5916 4.0968 25.3154 4.08316ZM9.89575 86.924V45.3792C18.9648 52.3548 31.5865 52.3775 40.6794 45.4326C49.7734 38.4887 53.0749 26.3069 48.7336 15.7206H67.058C69.1457 15.724 70.8379 17.4151 70.8402 19.5028V90.7062H43.1796C42.1875 84.8272 37.0961 80.5234 31.1341 80.5234C25.1722 80.5234 20.0808 84.8272 19.0875 90.7062H13.6779C11.5902 90.7039 9.89802 89.0129 9.89575 86.924ZM31.1341 100.889C26.6349 100.889 22.9879 97.2421 22.9879 92.7428C22.9879 88.2446 26.6349 84.5965 31.1341 84.5965C35.6334 84.5965 39.2804 88.2446 39.2804 92.7428C39.2747 97.2398 35.6312 100.884 31.1341 100.889ZM98.0496 100.889C93.5503 100.889 89.9034 97.2421 89.9034 92.7428C89.9034 88.2446 93.5503 84.5965 98.0496 84.5965C102.549 84.5965 106.196 88.2446 106.196 92.7428C106.19 97.2398 102.547 100.884 98.0496 100.889ZM119.288 86.924C119.286 89.0129 117.594 90.7039 115.506 90.7062H110.094C109.102 84.8272 104.01 80.5234 98.0485 80.5234C92.0854 80.5234 86.994 84.8272 86.0019 90.7062H74.9133V62.9036H119.288V86.924ZM102.049 44.6893C103.108 44.6905 104.118 45.1348 104.836 45.9144L116.691 58.8316H74.9122V44.6893H102.049Z" fill="#D15847"/>
<path d="M25.395 27.4046H37.4984C38.6224 27.4046 39.5349 26.4932 39.5349 25.3681C39.5349 24.243 38.6224 23.3315 37.4984 23.3315H27.4315V13.2646C27.4315 12.1407 26.5201 11.2281 25.395 11.2281C24.2698 11.2281 23.3584 12.1407 23.3584 13.2646V25.3681C23.3584 26.4932 24.2698 27.4046 25.395 27.4046Z" fill="#D15847"/>
</svg>
